<?xml version="1.0" ?>
<!-- Find more at icons.mysitemyway.com -->
<svg height="100" width="100" viewBox="0 0 100 100" xmlns:xlink="http://www.w3.org/1999/xlink" xmlns="http://www.w3.org/2000/svg" version="1.1">
<defs>
<linearGradient id="blue-gray-gradient" x1="0%" y1="0%" x2="0%" y2="100%">
<stop offset="0%" stop-color="#787D91" />
<stop offset="100%" stop-color="#424654" />
</linearGradient>
</defs>
<circle fill="url(#blue-gray-gradient)" cx="50" cy="50" r="49"/>
<path fill="#fff" transform="translate(25,25) scale(0.5)" d="M27.791,18.583c0.037,2.716-0.902,4.986-2.818,6.808c-1.917,1.823-4.436,2.734-7.561,2.734h-0.112 c-3.051,0-5.506-0.911-7.366-2.734c-1.86-1.822-2.79-4.092-2.79-6.808c0-2.752,0.958-5.031,2.874-6.836 c1.916-1.804,4.417-2.707,7.505-2.707c3.087,0,5.561,0.903,7.422,2.707C26.804,13.552,27.753,15.83,27.791,18.583z M26.619,35.659 V90.96H8.203V35.659H26.619z M92.857,59.263V90.96H74.498V61.385c0-3.906-0.753-6.966-2.26-9.18 c-1.507-2.213-3.86-3.321-7.059-3.321c-2.344,0-4.307,0.642-5.888,1.925c-1.582,1.283-2.763,2.874-3.544,4.771 c-0.409,1.116-0.613,2.623-0.613,4.52V90.96H36.775c0.074-14.844,0.111-26.878,0.111-36.104c0-9.226-0.019-14.732-0.056-16.518 l-0.056-2.678h18.359v8.036h-0.111c0.743-1.19,1.506-2.232,2.287-3.125c0.781-0.893,1.832-1.86,3.153-2.902 c1.32-1.041,2.938-1.85,4.854-2.427c1.916-0.577,4.046-0.865,6.39-0.865c6.362,0,11.477,2.112,15.347,6.334 C90.922,44.932,92.857,51.116,92.857,59.263z"/>
</svg>