<?xml version="1.0" ?>
<!-- Find more at icons.mysitemyway.com -->
<svg height="100" width="100" viewBox="0 0 100 100" xmlns:xlink="http://www.w3.org/1999/xlink" xmlns="http://www.w3.org/2000/svg" version="1.1">
<defs>
<linearGradient id="blue-gray-gradient" x1="0%" y1="0%" x2="0%" y2="100%">
<stop offset="0%" stop-color="#787D91" />
<stop offset="100%" stop-color="#424654" />
</linearGradient>
</defs>
<circle fill="url(#blue-gray-gradient)" cx="50" cy="50" r="49"/>
<path fill="#fff" transform="translate(25,25) scale(0.5)" d="M79.114,53.287c-2.363-2.907-5.351-5.186-8.926-6.819c2.514-1.212,4.612-2.874,6.271-4.973 c2.91-3.686,4.387-8.633,4.387-14.707c0-7.908-2.863-14.116-8.507-18.452C66.86,4.131,59.064,2,49.17,2H17.442 c-1.159,0-2.099,0.94-2.099,2.099v91.802c0,1.159,0.94,2.099,2.099,2.099H50.4c10.732,0,19.18-2.41,25.109-7.163 c6.071-4.866,9.148-11.809,9.148-20.638C84.657,63.503,82.792,57.813,79.114,53.287z M67.362,68.843 c0,5.103-1.34,8.735-4.098,11.107c-2.809,2.418-7.345,3.644-13.48,3.644H31.962V54.156h17.823c6.139,0,10.679,1.208,13.492,3.592 C66.026,60.076,67.362,63.706,67.362,68.843z M60.531,36.896c-2.586,1.978-6.718,2.981-12.283,2.981H31.961V16.404h16.287 c5.561,0,9.691,1.012,12.275,3.007c2.451,1.894,3.643,4.749,3.643,8.73C64.166,32.16,62.977,35.024,60.531,36.896z"/>
</svg>