<?xml version="1.0" ?>
<!-- Find more at icons.mysitemyway.com -->
<svg height="100" width="100" viewBox="0 0 100 100" xmlns:xlink="http://www.w3.org/1999/xlink" xmlns="http://www.w3.org/2000/svg" version="1.1">
<defs>
<linearGradient id="blue-gray-gradient" x1="0%" y1="0%" x2="0%" y2="100%">
<stop offset="0%" stop-color="#787D91" />
<stop offset="100%" stop-color="#424654" />
</linearGradient>
</defs>
<circle fill="url(#blue-gray-gradient)" cx="50" cy="50" r="49"/>
<path fill="#fff" transform="translate(25,25) scale(0.5)" d="M86.75,86.75C86.75,93.516,81.266,99,74.5,99H50 c-20.296,0-36.75-16.453-36.75-36.75v-49C13.25,6.484,18.735,1,25.5,1s12.25,5.484,12.25,12.25V25.5H74.5 c6.766,0,12.25,5.484,12.25,12.25C86.75,44.515,81.266,50,74.5,50H37.75v12.25c0,6.765,5.484,12.25,12.25,12.25h24.5 C81.266,74.5,86.75,79.984,86.75,86.75z"/>
</svg>