<?xml version="1.0" ?>
<!-- Find more at icons.mysitemyway.com -->
<svg height="100" width="100" viewBox="0 0 100 100" xmlns:xlink="http://www.w3.org/1999/xlink" xmlns="http://www.w3.org/2000/svg" version="1.1">
<defs>
<linearGradient id="blue-gray-gradient" x1="0%" y1="0%" x2="0%" y2="100%">
<stop offset="0%" stop-color="#787D91" />
<stop offset="100%" stop-color="#424654" />
</linearGradient>
</defs>
<circle fill="url(#blue-gray-gradient)" cx="50" cy="50" r="49"/>
<path fill="#fff" transform="translate(25,25) scale(0.5)" d="M57.087,34.152h14.342L69.754,50H57.087v45.981H38.058V50h-9.487V34.152h9.487v-9.542c0-6.771,1.599-11.895,4.799-15.374 c3.199-3.478,8.463-5.217,15.792-5.217h12.667v15.848h-7.924c-1.451,0-2.614,0.121-3.487,0.363 c-0.875,0.242-1.507,0.679-1.897,1.311c-0.391,0.633-0.642,1.275-0.754,1.925c-0.111,0.651-0.167,1.572-0.167,2.762V34.152z"/>
</svg>