<?xml version="1.0" ?>
<!-- Find more at icons.mysitemyway.com -->
<svg height="100" width="100" viewBox="0 0 100 100" xmlns:xlink="http://www.w3.org/1999/xlink" xmlns="http://www.w3.org/2000/svg" version="1.1">
<defs>
<linearGradient id="blue-gray-gradient" x1="0%" y1="0%" x2="0%" y2="100%">
<stop offset="0%" stop-color="#787D91" />
<stop offset="100%" stop-color="#424654" />
</linearGradient>
</defs>
<circle fill="url(#blue-gray-gradient)" cx="50" cy="50" r="49"/>
<path fill="#fff" transform="translate(25,25) scale(0.5)" d="M38.449,3.571h24.386l-7.534,4.408h-7.533c2.642,1.674,4.688,4.018,6.139,7.031c1.451,3.014,2.176,6.158,2.176,9.431 c0,2.753-0.428,5.199-1.283,7.338c-0.856,2.14-1.897,3.86-3.125,5.162s-2.455,2.502-3.683,3.599 c-1.228,1.098-2.27,2.232-3.125,3.404c-0.856,1.172-1.283,2.428-1.283,3.767c0,0.968,0.307,1.917,0.921,2.846 c0.614,0.931,1.413,1.823,2.399,2.679c0.985,0.856,2.073,1.749,3.264,2.679c1.19,0.931,2.381,1.963,3.571,3.097 c1.19,1.136,2.278,2.363,3.265,3.684c0.985,1.32,1.786,2.901,2.399,4.743c0.614,1.842,0.921,3.822,0.921,5.943 c0,5.952-2.604,11.197-7.812,15.736c-5.655,4.873-13.468,7.311-23.437,7.311c-2.196,0-4.418-0.187-6.669-0.559 c-2.251-0.372-4.52-0.995-6.808-1.869c-2.288-0.875-4.307-1.953-6.055-3.236c-1.75-1.284-3.181-2.939-4.297-4.967 c-1.116-2.028-1.674-4.287-1.674-6.78c0-2.269,0.688-4.78,2.065-7.533c1.19-2.381,2.976-4.437,5.357-6.167 c2.38-1.729,5.078-3.05,8.091-3.962c3.014-0.911,5.896-1.58,8.65-2.009c2.752-0.427,5.543-0.679,8.371-0.753 c-2.381-3.088-3.572-5.859-3.572-8.315c0-0.446,0.037-0.883,0.112-1.311c0.074-0.427,0.167-0.79,0.279-1.088 c0.112-0.297,0.26-0.698,0.447-1.2c0.186-0.502,0.315-0.901,0.391-1.2c-1.489,0.187-2.791,0.279-3.906,0.279 c-5.544,0-10.296-1.822-14.258-5.469c-3.962-3.646-5.943-8.222-5.943-13.728c0-5.208,1.767-9.868,5.301-13.979 c3.534-4.11,7.887-6.743,13.058-7.896C31.51,3.943,34.989,3.571,38.449,3.571z M52.455,78.181c0-0.781-0.084-1.535-0.251-2.26 c-0.167-0.726-0.345-1.396-0.53-2.01c-0.187-0.613-0.512-1.255-0.977-1.925c-0.466-0.67-0.856-1.236-1.172-1.702 c-0.316-0.465-0.809-1.013-1.479-1.646c-0.67-0.632-1.182-1.106-1.535-1.423c-0.354-0.315-0.949-0.79-1.786-1.423 c-0.837-0.632-1.415-1.061-1.73-1.283c-0.316-0.224-0.93-0.65-1.842-1.283s-1.479-1.023-1.702-1.172 c-0.633-0.074-1.562-0.112-2.791-0.112c-2.009,0-3.981,0.131-5.915,0.391c-1.935,0.261-3.944,0.726-6.027,1.396 c-2.084,0.67-3.906,1.525-5.469,2.566c-1.562,1.042-2.846,2.438-3.85,4.186c-1.005,1.749-1.507,3.739-1.507,5.971 c0,2.53,0.66,4.791,1.981,6.78c1.32,1.99,3.05,3.553,5.19,4.688c2.139,1.135,4.38,1.981,6.724,2.539 c2.344,0.559,4.706,0.837,7.087,0.837c2.195,0,4.288-0.232,6.278-0.697c1.99-0.466,3.859-1.19,5.608-2.176 c1.749-0.986,3.134-2.354,4.158-4.102C51.943,82.57,52.455,80.524,52.455,78.181z M45.759,30.078c0-2.232-0.307-4.604-0.921-7.115 s-1.488-4.938-2.623-7.282c-1.135-2.344-2.698-4.278-4.688-5.804c-1.991-1.525-4.213-2.288-6.668-2.288 c-3.46,0-6.139,1.284-8.036,3.851c-1.897,2.567-2.846,5.636-2.846,9.208c0,1.749,0.214,3.591,0.642,5.524 c0.427,1.935,1.088,3.87,1.981,5.804c0.893,1.935,1.934,3.674,3.125,5.218c1.19,1.544,2.641,2.8,4.353,3.767 c1.71,0.968,3.516,1.451,5.413,1.451c3.608,0,6.222-1.125,7.841-3.376C44.95,36.784,45.759,33.798,45.759,30.078z M96.429,17.857 V25H82.143v14.286H75V25H60.714v-7.143H75V3.571h7.143v14.286H96.429z"/>
</svg>