<?xml version="1.0" ?>
<!-- Find more at icons.mysitemyway.com -->
<svg height="100" width="100" viewBox="0 0 100 100" xmlns:xlink="http://www.w3.org/1999/xlink" xmlns="http://www.w3.org/2000/svg" version="1.1">
<defs>
<linearGradient id="blue-gray-gradient" x1="0%" y1="0%" x2="0%" y2="100%">
<stop offset="0%" stop-color="#787D91" />
<stop offset="100%" stop-color="#424654" />
</linearGradient>
</defs>
<circle fill="url(#blue-gray-gradient)" cx="50" cy="50" r="49"/>
<path fill="#fff" transform="translate(25,25) scale(0.5)" d="M76.46,56.686c-0.013,0.024-0.024,0.044-0.034,0.071l0.546,0.017c0.36,0.013,0.734,0.034,1.112,0.054 c-0.155-0.013-0.303-0.03-0.458-0.044L76.46,56.686z M50,2C23.489,2.003,2.003,23.489,2,50c0.003,26.511,21.489,47.997,48,48 c26.511-0.003,47.997-21.489,48-48C97.997,23.489,76.511,2.003,50,2z M10.495,55.366c2.86-0.31,6.174-0.498,9.401-0.525 c0.882,0,1.708-0.02,2.415-0.04c0.212,0.717,0.458,1.411,0.738,2.065h-0.02c-3.092,0.104-6.895,0.512-10.556,1.128 c-0.465,0.077-0.97,0.172-1.485,0.269C10.784,57.309,10.626,56.342,10.495,55.366z M38.872,72.648 c-0.337,0.094-0.754,0.236-1.202,0.394c-1.613,0.569-2.24,0.694-3.873,0.694c-1.691,0.051-2.092-0.064-3.102-0.573 c-1.475-0.694-2.846-1.943-3.762-3.449c-1.526-2.513-4.163-4.294-6.362-4.294c-1.883,0-2.236,0.765-0.879,1.876 c2.048,1.671,3.577,3.361,4.203,4.665c0.354,0.724,0.896,1.839,1.206,2.506c0.333,0.694,1.048,1.597,1.721,2.277 c1.59,1.485,3.126,2.22,5.416,2.6c1.533,0.202,1.91,0.202,3.722-0.013c0.876-0.101,1.613-0.226,2.274-0.397v2.597 c0,3.533-0.027,5.483-0.104,6.551c-6.238-1.94-11.812-5.372-16.329-9.882C16.49,72.883,12.684,66.1,11.037,58.501 c3.207-0.593,6.982-1.078,11.361-1.448l0.701-0.061c1.341,3.116,3.405,5.494,6.319,7.339c1.785,1.135,4.648,2.307,6.09,2.469 c0.397,0.067,1.549,0.303,2.56,0.539c1.017,0.222,2.998,0.579,4.409,0.795h0.03c-0.024,0.061-0.047,0.067-0.074,0.067 C40.727,69.094,39.619,70.475,38.872,72.648z M44.045,89.431c-0.566-0.084-1.128-0.189-1.684-0.293 c0.081-0.963,0.128-2.644,0.182-5.803c0.094-5.952,0.138-6.534,0.525-7.373c0.232-0.505,0.573-1.078,0.761-1.202 c0.32-0.263,0.34,0.256,0.34,7.37C44.17,85.848,44.149,88.013,44.045,89.431z M50,89.876c-0.498,0-0.997-0.02-1.492-0.04 c0.29-1.893,0.35-4.81,0.357-9.67l0.01-6.13l0.664,0.064l0.67,0.067l0.108,7.966c0.057,4.076,0.091,6.325,0.253,7.733 C50.381,89.862,50.195,89.876,50,89.876z M55.072,89.542c-0.131-1.634-0.125-4.187-0.091-8.599c0.064-6.285,0.064-6.285,0.441-5.958 c0.829,0.829,1.027,2.098,1.027,7.993c0,3.126,0.037,5.042,0.276,6.319C56.177,89.394,55.625,89.475,55.072,89.542z M89.034,58.175 c-0.522-0.098-1.034-0.192-1.502-0.269c-3.233-0.546-6.578-0.926-9.444-1.078c4.21,0.364,7.838,0.835,10.933,1.408 c-1.613,7.71-5.45,14.584-10.825,19.967c-4.722,4.715-10.61,8.245-17.198,10.131c-0.115-1.128-0.195-3.53-0.222-7.45 c-0.101-7.299-0.131-7.622-0.573-8.764c-0.61-1.543-1.583-2.732-2.732-3.553c-0.317-0.192-0.61-0.347-1.014-0.472 c0.488-0.067,0.95-0.071,1.438-0.192c4.776-0.633,7.302-1.202,9.337-1.967c4.254-1.657,7.171-4.382,8.777-8.313 c0.148-0.347,0.296-0.674,0.414-0.94l0.037,0.003c0.108-0.236,0.192-0.397,0.216-0.421c0.067-0.057,0.121-0.286,0.128-0.509 c0-0.125,0.057-0.529,0.138-1.068c0.839,0.034,1.954,0.061,3.159,0.067c3.23,0.027,6.551,0.216,9.411,0.525 C89.388,56.251,89.233,57.221,89.034,58.175z M84.77,54.614c-2.348-0.165-5.776-0.216-7.784-0.192 c0.067-0.347,0.125-0.734,0.199-1.132c0.28-1.529,0.374-3.072,0.381-6.14c0.007-4.759-0.249-6.066-1.799-9.212 c-0.633-1.283-1.344-2.375-2.206-3.361c0.758-2.22,0.697-5.659-0.067-8.673c-0.64-2.472-0.869-2.631-3.112-2.156 c-1.896,0.404-3.422,0.953-5.382,1.94c-0.923,0.465-2.196,1.192-3.109,1.758c-2.408-0.845-4.887-1.411-7.551-1.711 c-2.691-0.31-9.293-0.135-11.634,0.3c-2.294,0.424-4.355,0.943-6.224,1.556c-0.93-0.576-2.284-1.347-3.247-1.842 c-1.947-0.984-3.473-1.529-5.379-1.93c-2.236-0.485-2.466-0.32-3.105,2.156c-0.792,3.055-0.798,6.551-0.013,8.767 c0.088,0.253,0.145,0.434,0.168,0.573c-3.173,3.998-4.21,8.471-3.523,14.709c0.179,1.623,0.458,3.119,0.845,4.49 c-2.028-0.013-4.907,0.061-6.986,0.192c-1.529,0.104-3.223,0.256-4.776,0.434c-0.212-1.684-0.34-3.395-0.34-5.133 c0-11.024,4.456-20.967,11.681-28.198C29.033,14.587,38.979,10.131,50,10.131c11.024,0,20.97,4.456,28.195,11.677 c7.225,7.231,11.681,17.174,11.681,28.198c0,1.711-0.121,3.395-0.33,5.049C87.993,54.87,86.296,54.712,84.77,54.614z"/>
</svg>